<svg width="32" height="32" viewBox="0 0 32 32" fill="none" xmlns="http://www.w3.org/2000/svg">
  <!-- Container -->
  <rect x="6" y="4" width="20" height="24" rx="2" stroke="#CBD5E1" stroke-width="1.5" fill="none"/>
  <!-- Grid items -->
  <rect x="8" y="6" width="5" height="4" rx="0.5" stroke="#CBD5E1" stroke-width="1" fill="none"/>
  <rect x="15" y="6" width="5" height="4" rx="0.5" stroke="#CBD5E1" stroke-width="1" fill="none"/>
  <rect x="22" y="6" width="2" height="4" rx="0.5" stroke="#CBD5E1" stroke-width="1" fill="none"/>
  <rect x="8" y="12" width="5" height="4" rx="0.5" stroke="#CBD5E1" stroke-width="1" fill="none"/>
  <rect x="15" y="12" width="5" height="4" rx="0.5" stroke="#CBD5E1" stroke-width="1" fill="none"/>
  <rect x="22" y="12" width="2" height="4" rx="0.5" stroke="#CBD5E1" stroke-width="1" fill="none"/>
  <!-- Faded items -->
  <rect x="8" y="18" width="5" height="4" rx="0.5" stroke="#CBD5E1" stroke-width="1" fill="none" opacity="0.5"/>
  <rect x="15" y="18" width="5" height="4" rx="0.5" stroke="#CBD5E1" stroke-width="1" fill="none" opacity="0.5"/>
  <rect x="22" y="18" width="2" height="4" rx="0.5" stroke="#CBD5E1" stroke-width="1" fill="none" opacity="0.5"/>
  <!-- Scroll indicator -->
  <rect x="27" y="6" width="2" height="16" rx="1" stroke="#CBD5E1" stroke-width="1" fill="none"/>
  <rect x="27" y="6" width="2" height="6" rx="1" fill="#CBD5E1" opacity="0.6"/>
</svg>