<svg width="32" height="32" viewBox="0 0 32 32" fill="none" xmlns="http://www.w3.org/2000/svg">
  <!-- Container -->
  <rect x="4" y="6" width="24" height="20" rx="2" stroke="#CBD5E1" stroke-width="1.5" fill="none"/>
  <!-- Grid items -->
  <rect x="6" y="8" width="4" height="5" rx="0.5" stroke="#CBD5E1" stroke-width="1" fill="none"/>
  <rect x="6" y="15" width="4" height="5" rx="0.5" stroke="#CBD5E1" stroke-width="1" fill="none"/>
  <rect x="6" y="22" width="4" height="2" rx="0.5" stroke="#CBD5E1" stroke-width="1" fill="none"/>
  <rect x="12" y="8" width="4" height="5" rx="0.5" stroke="#CBD5E1" stroke-width="1" fill="none"/>
  <rect x="12" y="15" width="4" height="5" rx="0.5" stroke="#CBD5E1" stroke-width="1" fill="none"/>
  <rect x="12" y="22" width="4" height="2" rx="0.5" stroke="#CBD5E1" stroke-width="1" fill="none"/>
  <!-- Faded items -->
  <rect x="18" y="8" width="4" height="5" rx="0.5" stroke="#CBD5E1" stroke-width="1" fill="none" opacity="0.5"/>
  <rect x="18" y="15" width="4" height="5" rx="0.5" stroke="#CBD5E1" stroke-width="1" fill="none" opacity="0.5"/>
  <rect x="18" y="22" width="4" height="2" rx="0.5" stroke="#CBD5E1" stroke-width="1" fill="none" opacity="0.5"/>
  <!-- Scroll indicator -->
  <rect x="6" y="27" width="16" height="2" rx="1" stroke="#CBD5E1" stroke-width="1" fill="none"/>
  <rect x="6" y="27" width="6" height="2" rx="1" fill="#CBD5E1" opacity="0.6"/>
</svg>